<svg width="28" height="29" viewBox="0 0 28 29" fill="none" xmlns="http://www.w3.org/2000/svg">
<path d="M3.5 28.5H0.5V27C0.506613 21.2038 5.20375 16.5066 11 16.5H17C22.7962 16.5066 27.4934 21.2038 27.5 27V28.5H24.5V27C24.495 22.8599 21.1401 19.505 17 19.5H11C6.85992 19.505 3.50496 22.8599 3.5 27V28.5ZM14 15C9.85786 15 6.5 11.6421 6.5 7.5C6.5 3.35786 9.85786 0 14 0C18.1421 0 21.5 3.35786 21.5 7.5C21.495 11.6401 18.1401 14.995 14 15ZM14 3C11.5147 3 9.5 5.01472 9.5 7.5C9.5 9.98528 11.5147 12 14 12C16.4853 12 18.5 9.98528 18.5 7.5C18.5 5.01472 16.4853 3 14 3Z" fill="white"/>
</svg>
