<svg width="29" height="29" viewBox="0 0 29 29" fill="none" xmlns="http://www.w3.org/2000/svg">
<path d="M15.3455 28.9518C14.5494 28.9541 13.7855 28.6375 13.2245 28.0728L1.46896 16.3203C0.848666 15.702 0.530667 14.8429 0.598957 13.9698L1.34896 4.12078C1.45609 2.6383 2.63808 1.46078 4.12096 1.35928L13.97 0.609278C14.048 0.592776 14.1245 0.592776 14.2025 0.592776C14.9969 0.591824 15.7589 0.908269 16.319 1.47178L28.0745 13.2228C28.6373 13.7854 28.9536 14.5487 28.9536 15.3445C28.9536 16.1404 28.6373 16.9036 28.0745 17.4663L17.4665 28.0728C16.9052 28.6373 16.1415 28.9538 15.3455 28.9518ZM8.98096 5.98078C7.62319 5.98117 6.43495 6.89343 6.08385 8.20502C5.73275 9.51661 6.30633 10.9005 7.48233 11.5791C8.65832 12.2578 10.1435 12.062 11.1035 11.1018L11.114 11.0928L11.1245 11.0823L11.1125 11.0928C11.9651 10.2326 12.2169 8.94411 11.7508 7.82624C11.2847 6.70836 10.1921 5.98041 8.98096 5.98078Z" fill="white"/>
</svg>
