<svg width="24" height="32" viewBox="0 0 24 32" fill="none" xmlns="http://www.w3.org/2000/svg">
<path d="M6 7V4C6 3.20435 6.31607 2.44129 6.87868 1.87868C7.44129 1.31607 8.20435 1 9 1H15C15.7956 1 16.5587 1.31607 17.1213 1.87868C17.6839 2.44129 18 3.20435 18 4V7M22.5 7V28C22.5 28.7956 22.1839 29.5587 21.6213 30.1213C21.0587 30.6839 20.2956 31 19.5 31H4.5C3.70435 31 2.94129 30.6839 2.37868 30.1213C1.81607 29.5587 1.5 28.7956 1.5 28V7H22.5Z" stroke="black" stroke-opacity="0.3" stroke-width="2" stroke-linecap="round" stroke-linejoin="round"/>
</svg>
