<svg width="24" height="30" viewBox="0 0 24 30" fill="none" xmlns="http://www.w3.org/2000/svg">
<path d="M12 30C5.496 30 0 26.9475 0 23.334V6.666C0 3.0525 5.496 0 12 0C18.504 0 24 3.0525 24 6.666V23.334C24 26.9475 18.5055 30 12 30ZM3 19.35V23.3385C3.105 24.168 6.4635 26.6715 12 26.6715C17.5365 26.6715 20.8965 24.1605 21 23.3295V19.35C18.2691 20.9331 15.1559 21.7358 12 21.6705C8.8441 21.7358 5.73087 20.9331 3 19.35ZM3 11.0115V15C3.105 15.8295 6.4635 18.333 12 18.333C17.5365 18.333 20.8965 15.822 21 14.991V11.0115C18.2693 12.5952 15.156 13.3984 12 13.3335C8.84395 13.3985 5.73069 12.5952 3 11.0115ZM12 3.333C6.462 3.333 3.1035 5.844 3 6.6765C3.105 7.5 6.4665 9.999 12 9.999C17.5335 9.999 20.8965 7.488 21 6.657C20.895 5.8305 17.5335 3.333 12 3.333Z" fill="white"/>
</svg>
