<svg width="28" height="28" viewBox="0 0 28 28" fill="none" xmlns="http://www.w3.org/2000/svg">
<path d="M15.5 27.5H3.5C1.84315 27.5 0.5 26.1569 0.5 24.5V3.5C0.5 1.84315 1.84315 0.5 3.5 0.5H24.5C26.1569 0.5 27.5 1.84315 27.5 3.5V15.5C27.4993 15.5173 27.4963 15.5345 27.491 15.551C27.4867 15.5647 27.4837 15.5788 27.482 15.593C27.4735 15.7253 27.4478 15.8559 27.4055 15.9815L27.392 16.022C27.3819 16.0559 27.3694 16.089 27.3545 16.121C27.2819 16.2844 27.1802 16.4333 27.0545 16.5605L16.5545 27.0605C16.2747 27.3404 15.8957 27.4983 15.5 27.5ZM3.5 3.5V24.5H14V15.5C14 14.6716 14.6716 14 15.5 14H24.5V3.5H3.5ZM17 17V22.3805L22.379 17H17Z" fill="white"/>
</svg>
