<svg width="24" height="31" viewBox="0 0 24 31" fill="none" xmlns="http://www.w3.org/2000/svg">
<path d="M21 30.9998H3C1.34315 30.9998 0 29.6567 0 27.9998V3.99984C0 2.34299 1.34315 0.999842 3 0.999842H13.5C13.5134 0.998099 13.5271 0.998099 13.5405 0.999842H13.5495C13.5637 1.00428 13.5782 1.00729 13.593 1.00884C13.7253 1.01732 13.8559 1.04304 13.9815 1.08534H14.004H14.0265H14.0445C14.0722 1.10473 14.0983 1.1263 14.1225 1.14984C14.2859 1.22248 14.4348 1.32412 14.562 1.44984L23.562 10.4498C23.6877 10.577 23.7894 10.7259 23.862 10.8893C23.8755 10.9223 23.886 10.9538 23.8965 10.9883L23.9115 11.0303C23.9534 11.1554 23.9781 11.2856 23.985 11.4173C23.9863 11.4323 23.9898 11.4469 23.9955 11.4608V11.4698C23.998 11.4797 23.9995 11.4897 24 11.4998V27.9998C24 28.7955 23.6839 29.5586 23.1213 30.1212C22.5587 30.6838 21.7956 30.9998 21 30.9998ZM13.5 3.99984V11.4998H21L13.5 3.99984Z" fill="white"/>
</svg>
