<svg width="30" height="30" viewBox="0 0 30 30" fill="none" xmlns="http://www.w3.org/2000/svg">
<path d="M15.0002 30.0001C12.7322 30.0064 10.493 29.4933 8.45415 28.5C7.70797 28.1371 6.99304 27.7131 6.31665 27.2325L6.11115 27.0825C4.25088 25.7094 2.72996 23.9283 1.66515 21.876C0.563754 19.7518 -0.00748907 17.3927 7.41344e-05 15C7.41344e-05 6.71573 6.71588 0 15.0002 0C23.2844 0 30.0002 6.71573 30.0002 15C30.0077 17.3916 29.437 19.7496 28.3367 21.873C27.2733 23.9241 25.7545 25.7046 23.8967 27.078C23.1958 27.591 22.452 28.0427 21.6737 28.428L21.5536 28.488C19.5135 29.4866 17.2715 30.0038 15.0002 30.0001ZM15.0002 22.5C12.7524 22.4956 10.6916 23.751 9.66465 25.7505C13.0267 27.4158 16.9736 27.4158 20.3357 25.7505V25.743C19.3074 23.7457 17.2466 22.4931 15.0002 22.5ZM15.0002 19.5C18.2493 19.5042 21.2453 21.2552 22.8437 24.084L22.8661 24.0645L22.8871 24.0465L22.8617 24.069L22.8466 24.081C26.6401 20.8037 27.9966 15.5135 26.2481 10.8152C24.4997 6.11682 20.0148 3.00047 15.0017 3.00047C9.98851 3.00047 5.50364 6.11682 3.75518 10.8152C2.00671 15.5135 3.36315 20.8037 7.15665 24.081C8.75604 21.2536 11.7517 19.5039 15.0002 19.5ZM15.0002 18C11.6864 18 9.00015 15.3137 9.00015 12C9.00015 8.68629 11.6864 6 15.0002 6C18.3139 6 21.0002 8.68629 21.0002 12C21.0002 13.5913 20.368 15.1174 19.2428 16.2426C18.1176 17.3679 16.5914 18 15.0002 18ZM15.0002 9C13.3433 9 12.0002 10.3431 12.0002 12C12.0002 13.6569 13.3433 15 15.0002 15C16.657 15 18.0002 13.6569 18.0002 12C18.0002 10.3431 16.657 9 15.0002 9Z" fill="white"/>
</svg>
